<svg xmlns="http://www.w3.org/2000/svg" width="128" height="128" viewBox="0 0 128 128">
  <title>PAINT</title>
  <g>
    <g>
      <rect x="19.229" y="33.44" width="69.234" height="21.938" rx="3" fill="#ffdf40"/>
      <rect x="46.346" y="92.437" width="15" height="33.813" fill="#4d5e80"/>
      <path d="M98.771,40.409H88.463v8H98.771a2,2,0,0,1,2,2v14.4A2.006,2.006,0,0,1,99.03,66.8L49.846,73.224V92.437h8V80.245l42.221-5.518a10.027,10.027,0,0,0,8.7-9.916v-14.4A10.012,10.012,0,0,0,98.771,40.409Z" fill="#f3f5f9"/>
      <path d="M70.909,6.877V14a5.127,5.127,0,0,1-5.127,5.126h-.809A5.126,5.126,0,0,1,59.846,14V6.877A5.126,5.126,0,0,0,54.72,1.75h-.81a5.126,5.126,0,0,0-5.126,5.127h0A5.127,5.127,0,0,1,43.657,12h-.809a5.126,5.126,0,0,1-5.127-5.126h0A5.126,5.126,0,0,0,32.6,1.75h-.81a5.126,5.126,0,0,0-5.126,5.127V33.44H81.971V6.877A5.126,5.126,0,0,0,76.845,1.75h-.81A5.126,5.126,0,0,0,70.909,6.877Z" fill="#ff7f40"/>
      <path d="M37.534,17.815a1.75,1.75,0,0,0-1.75,1.75V33.44h3.5V19.565A1.751,1.751,0,0,0,37.534,17.815Z" fill="#f25a3c"/>
      <path d="M48.6,28.253a1.75,1.75,0,0,1-1.75-1.75V21.815a1.75,1.75,0,0,1,3.5,0V26.5A1.75,1.75,0,0,1,48.6,28.253Z" fill="#f25a3c"/>
    </g>
    <g>
      <path d="M76.309,71.515a1.8,1.8,0,0,0,.23-.015l3.617-.474a1.75,1.75,0,1,0-.454-3.47l-3.618.473a1.75,1.75,0,0,0,.225,3.486Z"/>
      <path d="M98.771,38.659H90.213V36.44a4.756,4.756,0,0,0-4.75-4.75H83.721V6.876A6.884,6.884,0,0,0,76.845,0h-.81a6.884,6.884,0,0,0-6.876,6.876V14a3.381,3.381,0,0,1-3.377,3.376h-.809A3.381,3.381,0,0,1,61.6,14V6.876A6.884,6.884,0,0,0,54.72,0h-.81a6.885,6.885,0,0,0-6.876,6.877,3.381,3.381,0,0,1-3.377,3.376h-.809a3.381,3.381,0,0,1-3.377-3.376,1.75,1.75,0,0,0-3.5,0,6.885,6.885,0,0,0,6.877,6.876h.809a6.885,6.885,0,0,0,6.877-6.877A3.38,3.38,0,0,1,53.91,3.5h.81A3.381,3.381,0,0,1,58.1,6.876V14a6.885,6.885,0,0,0,6.877,6.876h.809A6.885,6.885,0,0,0,72.659,14V6.876A3.38,3.38,0,0,1,76.035,3.5h.81a3.381,3.381,0,0,1,3.376,3.376V31.69H39.284V19.565a1.75,1.75,0,0,0-3.5,0V31.69H28.409V6.876A3.38,3.38,0,0,1,31.785,3.5a1.75,1.75,0,0,0,0-3.5,6.884,6.884,0,0,0-6.876,6.876V31.69h-2.68a4.756,4.756,0,0,0-4.75,4.75V52.378a4.756,4.756,0,0,0,4.75,4.75H85.463a4.756,4.756,0,0,0,4.75-4.75V50.159h8.558a.253.253,0,0,1,.25.25v14.4a.255.255,0,0,1-.218.249l-8.05,1.051a1.75,1.75,0,0,0,.453,3.471l8.051-1.052a3.759,3.759,0,0,0,3.264-3.719v-14.4a3.755,3.755,0,0,0-3.75-3.75H90.213v-4.5h8.558a8.259,8.259,0,0,1,8.25,8.25v14.4a8.271,8.271,0,0,1-7.181,8.18L57.619,78.51A1.75,1.75,0,0,0,56.1,80.245V90.688H51.6V74.76l13.891-1.816a1.75,1.75,0,1,0-.453-3.47L49.62,71.488A1.752,1.752,0,0,0,48.1,73.224V90.688h-1.75a1.75,1.75,0,0,0-1.75,1.75V126.25a1.75,1.75,0,0,0,1.75,1.75h15a1.75,1.75,0,0,0,1.75-1.75V92.438a1.75,1.75,0,0,0-1.75-1.75H59.6V81.781l40.7-5.319a11.781,11.781,0,0,0,10.228-11.651v-14.4A11.764,11.764,0,0,0,98.771,38.659ZM86.713,52.378a1.252,1.252,0,0,1-1.25,1.25H22.229a1.252,1.252,0,0,1-1.25-1.25V36.44a1.252,1.252,0,0,1,1.25-1.25H85.463a1.252,1.252,0,0,1,1.25,1.25ZM59.6,124.5H48.1V94.188H59.6Z"/>
      <path d="M50.346,26.5V21.815a1.75,1.75,0,0,0-3.5,0V26.5a1.75,1.75,0,0,0,3.5,0Z"/>
    </g>
  </g>
</svg>
