<?xml version="1.0" encoding="utf-8"?>
<!-- Generator: Adobe Illustrator 21.0.0, SVG Export Plug-In . SVG Version: 6.00 Build 0)  -->
<svg version="1.1" id="Layer_1" xmlns="http://www.w3.org/2000/svg" xmlns:xlink="http://www.w3.org/1999/xlink" x="0px" y="0px"
	 viewBox="0 0 64 64" style="enable-background:new 0 0 64 64;" xml:space="preserve">
<style type="text/css">
	.st0{fill:#455A64;stroke:#37474F;stroke-linecap:round;stroke-linejoin:round;stroke-miterlimit:10;}
	.st1{fill:#78909C;stroke:#37474F;stroke-linecap:round;stroke-linejoin:round;stroke-miterlimit:10;}
	.st2{fill:#ECEFF1;stroke:#37474F;stroke-linecap:round;stroke-linejoin:round;stroke-miterlimit:10;}
	.st3{fill:none;stroke:#FFFFFF;stroke-linecap:round;stroke-linejoin:round;stroke-miterlimit:10;}
	.st4{fill:#FFCA28;stroke:#37474F;stroke-linecap:round;stroke-linejoin:round;stroke-miterlimit:10;}
	.st5{fill:none;stroke:#37474F;stroke-linecap:round;stroke-linejoin:round;stroke-miterlimit:10;}
	.st6{fill:#B0BEC5;}
	.st7{fill:#37474F;}
	.st8{fill:#455A64;}
	.st9{fill:#9CCC65;stroke:#37474F;stroke-linecap:round;stroke-linejoin:round;stroke-miterlimit:10;}
	.st10{fill:none;stroke:#C5E1A5;stroke-linecap:round;stroke-linejoin:round;stroke-miterlimit:10;}
	.st11{fill:#26C6DA;stroke:#37474F;stroke-linecap:round;stroke-linejoin:round;stroke-miterlimit:10;}
	.st12{fill:#EF5350;stroke:#37474F;stroke-linecap:round;stroke-linejoin:round;stroke-miterlimit:10;}
	.st13{fill:#B0BEC5;stroke:#37474F;stroke-linecap:round;stroke-linejoin:round;stroke-miterlimit:10;}
	.st14{fill:none;stroke:#EF9A9A;stroke-linecap:round;stroke-linejoin:round;stroke-miterlimit:10;}
	.st15{fill:none;stroke:#FFE082;stroke-linecap:round;stroke-linejoin:round;stroke-miterlimit:10;}
	.st16{fill:#D32F2F;stroke:#37474F;stroke-linecap:round;stroke-linejoin:round;stroke-miterlimit:10;}
	.st17{fill:#0097A7;stroke:#37474F;stroke-linecap:round;stroke-linejoin:round;stroke-miterlimit:10;}
	.st18{fill:#689F38;stroke:#37474F;stroke-linecap:round;stroke-linejoin:round;stroke-miterlimit:10;}
	.st19{fill:#FFA000;stroke:#37474F;stroke-linecap:round;stroke-linejoin:round;stroke-miterlimit:10;}
	.st20{fill:#FFA000;}
	.st21{fill:#FF6F00;}
	.st22{fill:#D32F2F;}
	.st23{fill:#0097A7;}
	.st24{fill:none;stroke:#80DEEA;stroke-linecap:round;stroke-linejoin:round;stroke-miterlimit:10;}
	.st25{fill:#689F38;}
	.st26{fill:none;stroke:#B0BEC5;stroke-linecap:round;stroke-linejoin:round;stroke-miterlimit:10;}
	.st27{fill:#78909C;stroke:#37474F;stroke-miterlimit:10;}
	.st28{fill:#78909C;}
	.st29{fill:#B71C1C;}
	.st30{fill:#F57F17;}
	.st31{fill:#006064;}
	.st32{fill:#26A69A;stroke:#37474F;stroke-linecap:round;stroke-linejoin:round;stroke-miterlimit:10;}
</style>
<g>
	<path class="st2" d="M54.5,9.6c-1.3-0.3-2.6,0.6-3,1.9L48,24.3l2.1-16.8c0.2-1.3-0.6-2.6-1.9-2.9c-1.5-0.3-2.9,0.7-3,2.1l-1.6,12.6
		L42.5,3c-0.1-1.3-1.1-2.4-2.4-2.5c-1.5,0-2.7,1.2-2.6,2.7l1.4,20.8c-0.8-0.7-1.7-1.2-2.7-1.7c-2.5-1-5.2-1-7.7,0
		c-2.4,1-4.3,2.8-5.3,5.2c-0.6,1.2-0.2,2.7,1,3.4c1.3,0.7,2.9,0.2,3.5-1.2c0.4-0.9,0.9-1.6,1.7-2.2c1.5-1.1,3.3-1.3,4.9-0.6
		c1.2,0.5,2.2,1.5,2.7,2.7c0.5,1.2,0.5,2.6,0,3.8c-0.8,1.9-2.6,3-4.5,3.1h-0.2v0c-1.1,0-2.3-0.4-3.3-1.2c-0.6-0.5-1-1.2-1.4-1.9
		c-0.6-1.3-2.2-1.9-3.5-1.1c-1.2,0.7-1.5,2.1-1,3.4c1,2.3,2.9,4.2,5.3,5.2c0.2,0.1,0.4,0.1,0.5,0.2c2,0.7,3.3,2.6,3.3,4.7v5.9h17.4
		v-15l6.6-23.8C56.8,11.3,55.9,9.9,54.5,9.6z"/>
	<path class="st3" d="M25.1,28.2c0.8-1.9,2.3-3.3,4.2-4.1c1-0.4,2-0.6,3.1-0.6c1,0,2.1,0.2,3.1,0.6c0.8,0.3,1.5,0.8,2.2,1.3"/>
	<path class="st4" d="M29.1,7.6l2.3-0.8c0.9-0.3,0.9-1.6,0-1.9l-2.3-0.8c-0.3-0.1-0.5-0.3-0.6-0.6l-0.8-2.3c-0.3-0.9-1.6-0.9-1.9,0
		l-0.8,2.3C25,3.8,24.7,4,24.4,4.1l-2.3,0.8c-0.9,0.3-0.9,1.6,0,1.9l2.3,0.8c0.3,0.1,0.5,0.3,0.6,0.6l0.8,2.3c0.3,0.9,1.6,0.9,1.9,0
		l0.8-2.3C28.6,7.9,28.8,7.7,29.1,7.6z"/>
	<path class="st4" d="M18.3,21.1l4.2-1.4c0.9-0.3,0.9-1.6,0-1.9l-4.2-1.4c-0.3-0.1-0.5-0.3-0.6-0.6l-1.4-4.2c-0.3-0.9-1.6-0.9-1.9,0
		L13,15.8c-0.1,0.3-0.3,0.5-0.6,0.6l-4.2,1.4c-0.9,0.3-0.9,1.6,0,1.9l4.2,1.4c0.3,0.1,0.5,0.3,0.6,0.6l1.4,4.2
		c0.3,0.9,1.6,0.9,1.9,0l1.4-4.2C17.8,21.4,18,21.2,18.3,21.1z"/>
	<path class="st15" d="M11.7,18.4l1.3-0.4c0.9-0.3,1.6-1,1.9-1.9l0.4-1.3"/>
	<line class="st5" x1="43.9" y1="24.3" x2="43.6" y2="19.2"/>
	<path class="st1" d="M53.1,53v-5c0-1.4-1.1-2.5-2.5-2.5h-19c-1.4,0-2.5,1.1-2.5,2.5v5c0,1.4,1.1,2.5,2.5,2.5h19
		C52,55.5,53.1,54.4,53.1,53z"/>
	<circle class="st11" cx="34.1" cy="50.5" r="2"/>
	<path class="st11" d="M50.1,61v-5.5h-18V61c0,1.4,1.1,2.5,2.5,2.5h13C49,63.5,50.1,62.4,50.1,61z"/>
</g>
</svg>
